<svg width="427" height="45" viewBox="0 0 427 45" fill="none" xmlns="http://www.w3.org/2000/svg">
<g filter="url(#filter0_d_696_227)">
<path d="M0.0500002 41V0.499997H10.3C12.0667 0.499997 13.7 0.649997 15.2 0.949997C16.7 1.25 18.0167 1.78333 19.15 2.55C20.3167 3.31666 21.2 4.38333 21.8 5.75C22.4333 7.08333 22.75 8.83333 22.75 11C22.75 12.6333 22.5167 14.0333 22.05 15.2C21.5833 16.3333 20.9167 17.2333 20.05 17.9C19.1833 18.5667 18.1167 19.0167 16.85 19.25C18.4167 19.4833 19.7333 20.0167 20.8 20.85C21.8667 21.6833 22.6667 22.7833 23.2 24.15C23.7333 25.5167 24 27.1667 24 29.1C24 31.1333 23.7333 32.9 23.2 34.4C22.7 35.9 21.95 37.1333 20.95 38.1C19.95 39.0667 18.7167 39.8 17.25 40.3C15.7833 40.7667 14.0833 41 12.15 41H0.0500002ZM8.3 35.2H10.6C12.6667 35.2 14.0833 34.6833 14.85 33.65C15.65 32.6167 16.05 31.0667 16.05 29C16.05 27.4 15.8667 26.1333 15.5 25.2C15.1333 24.2333 14.5333 23.5333 13.7 23.1C12.9 22.6333 11.8167 22.4 10.45 22.4H8.3V35.2ZM8.3 16.85H10.35C11.7833 16.85 12.8667 16.65 13.6 16.25C14.3333 15.8167 14.8333 15.1833 15.1 14.35C15.4 13.4833 15.55 12.4333 15.55 11.2C15.55 9.96667 15.3333 8.98333 14.9 8.25C14.5 7.48333 13.8667 6.93333 13 6.6C12.1667 6.26667 11.1 6.1 9.8 6.1H8.3V16.85ZM30.2609 41V0.499997H40.7609C43.4943 0.499997 45.8276 0.816664 47.7609 1.45C49.7276 2.05 51.2276 3.13333 52.2609 4.7C53.3276 6.26667 53.8609 8.43333 53.8609 11.2C53.8609 12.8667 53.7109 14.35 53.4109 15.65C53.1443 16.9167 52.6443 18.0333 51.9109 19C51.2109 19.9333 50.2109 20.6833 48.9109 21.25L54.5109 41H46.0609L41.4109 22.65H38.5109V41H30.2609ZM38.5109 17.75H40.9109C42.2443 17.75 43.2943 17.5333 44.0609 17.1C44.8276 16.6667 45.3609 16.0167 45.6609 15.15C45.9943 14.25 46.1609 13.15 46.1609 11.85C46.1609 9.98333 45.8109 8.56666 45.1109 7.6C44.4443 6.6 43.1776 6.1 41.3109 6.1H38.5109V17.75ZM72.116 41.55C69.0493 41.55 66.666 41.0333 64.966 40C63.266 38.9333 62.066 37.4167 61.366 35.45C60.6993 33.45 60.366 31.0333 60.366 28.2V0.499997H68.516V29.35C68.516 30.35 68.5827 31.3333 68.716 32.3C68.8827 33.2667 69.216 34.05 69.716 34.65C70.2493 35.25 71.0493 35.55 72.116 35.55C73.216 35.55 74.016 35.25 74.516 34.65C75.0493 34.05 75.3827 33.2667 75.516 32.3C75.6494 31.3333 75.716 30.35 75.716 29.35V0.499997H83.866V28.2C83.866 31.0333 83.516 33.45 82.816 35.45C82.1493 37.4167 80.966 38.9333 79.266 40C77.566 41.0333 75.1827 41.55 72.116 41.55ZM91.1223 41V0.499997H96.8723L105.872 21.6V0.499997H112.672V41H107.172L98.1723 18.6V41H91.1223ZM131.558 41.55C128.558 41.55 126.174 40.9833 124.408 39.85C122.674 38.7167 121.458 37.15 120.758 35.15C120.058 33.1167 119.708 30.7667 119.708 28.1V13.55C119.708 10.75 120.058 8.35 120.758 6.35C121.458 4.31667 122.674 2.75 124.408 1.65C126.174 0.549997 128.558 -2.6226e-06 131.558 -2.6226e-06C134.458 -2.6226e-06 136.724 0.483331 138.358 1.45C140.024 2.41667 141.191 3.78333 141.858 5.55C142.558 7.31667 142.908 9.36667 142.908 11.7V15.1H134.908V11.3C134.908 10.3667 134.858 9.5 134.758 8.7C134.658 7.86667 134.374 7.2 133.908 6.7C133.474 6.16667 132.708 5.9 131.608 5.9C130.508 5.9 129.708 6.16667 129.208 6.7C128.708 7.23333 128.391 7.93333 128.258 8.8C128.124 9.63333 128.058 10.5667 128.058 11.6V30C128.058 31.1333 128.141 32.1333 128.308 33C128.508 33.8333 128.858 34.4833 129.358 34.95C129.891 35.3833 130.641 35.6 131.608 35.6C132.674 35.6 133.424 35.35 133.858 34.85C134.324 34.3167 134.608 33.6167 134.708 32.75C134.841 31.8833 134.908 30.9667 134.908 30V26.05H142.908V29.4C142.908 31.7667 142.574 33.8667 141.908 35.7C141.241 37.5 140.091 38.9333 138.458 40C136.824 41.0333 134.524 41.55 131.558 41.55ZM149.545 41V0.499997H157.795V17.15H164.945V0.499997H173.195V41H164.945V23.05H157.795V41H149.545ZM206.175 41.55C203.175 41.55 200.792 40.9833 199.025 39.85C197.292 38.7167 196.075 37.15 195.375 35.15C194.675 33.1167 194.325 30.7667 194.325 28.1V13.55C194.325 10.75 194.675 8.35 195.375 6.35C196.075 4.31667 197.292 2.75 199.025 1.65C200.792 0.549997 203.175 -2.6226e-06 206.175 -2.6226e-06C209.075 -2.6226e-06 211.342 0.483331 212.975 1.45C214.642 2.41667 215.808 3.78333 216.475 5.55C217.175 7.31667 217.525 9.36667 217.525 11.7V15.1H209.525V11.3C209.525 10.3667 209.475 9.5 209.375 8.7C209.275 7.86667 208.992 7.2 208.525 6.7C208.092 6.16667 207.325 5.9 206.225 5.9C205.125 5.9 204.325 6.16667 203.825 6.7C203.325 7.23333 203.008 7.93333 202.875 8.8C202.742 9.63333 202.675 10.5667 202.675 11.6V30C202.675 31.1333 202.758 32.1333 202.925 33C203.125 33.8333 203.475 34.4833 203.975 34.95C204.508 35.3833 205.258 35.6 206.225 35.6C207.292 35.6 208.042 35.35 208.475 34.85C208.942 34.3167 209.225 33.6167 209.325 32.75C209.458 31.8833 209.525 30.9667 209.525 30V26.05H217.525V29.4C217.525 31.7667 217.192 33.8667 216.525 35.7C215.858 37.5 214.708 38.9333 213.075 40C211.442 41.0333 209.142 41.55 206.175 41.55ZM235.362 41.55C232.395 41.55 230.045 41.0167 228.312 39.95C226.578 38.8833 225.328 37.3667 224.562 35.4C223.828 33.4 223.462 31.0167 223.462 28.25V13.15C223.462 10.3833 223.828 8.01666 224.562 6.05C225.328 4.08333 226.578 2.58333 228.312 1.55C230.045 0.516664 232.395 -2.6226e-06 235.362 -2.6226e-06C238.362 -2.6226e-06 240.728 0.533331 242.462 1.6C244.228 2.63333 245.478 4.13333 246.212 6.1C246.978 8.03333 247.362 10.3833 247.362 13.15V28.25C247.362 31.0167 246.978 33.4 246.212 35.4C245.478 37.3667 244.228 38.8833 242.462 39.95C240.728 41.0167 238.362 41.55 235.362 41.55ZM235.362 35.6C236.428 35.6 237.212 35.3667 237.712 34.9C238.212 34.4 238.545 33.75 238.712 32.95C238.878 32.1167 238.962 31.2333 238.962 30.3V11.15C238.962 10.2167 238.878 9.35 238.712 8.55C238.545 7.75 238.212 7.11666 237.712 6.65C237.212 6.15 236.428 5.9 235.362 5.9C234.362 5.9 233.612 6.15 233.112 6.65C232.612 7.11666 232.278 7.75 232.112 8.55C231.945 9.35 231.862 10.2167 231.862 11.15V30.3C231.862 31.2333 231.928 32.1167 232.062 32.95C232.228 33.75 232.562 34.4 233.062 34.9C233.562 35.3667 234.328 35.6 235.362 35.6ZM265.62 41.55C262.62 41.55 260.237 40.9833 258.47 39.85C256.737 38.7167 255.52 37.15 254.82 35.15C254.12 33.1167 253.77 30.7667 253.77 28.1V13.55C253.77 10.75 254.12 8.35 254.82 6.35C255.52 4.31667 256.737 2.75 258.47 1.65C260.237 0.549997 262.62 -2.6226e-06 265.62 -2.6226e-06C268.52 -2.6226e-06 270.787 0.483331 272.42 1.45C274.087 2.41667 275.254 3.78333 275.92 5.55C276.62 7.31667 276.97 9.36667 276.97 11.7V15.1H268.97V11.3C268.97 10.3667 268.92 9.5 268.82 8.7C268.72 7.86667 268.437 7.2 267.97 6.7C267.537 6.16667 266.77 5.9 265.67 5.9C264.57 5.9 263.77 6.16667 263.27 6.7C262.77 7.23333 262.454 7.93333 262.32 8.8C262.187 9.63333 262.12 10.5667 262.12 11.6V30C262.12 31.1333 262.204 32.1333 262.37 33C262.57 33.8333 262.92 34.4833 263.42 34.95C263.954 35.3833 264.704 35.6 265.67 35.6C266.737 35.6 267.487 35.35 267.92 34.85C268.387 34.3167 268.67 33.6167 268.77 32.75C268.904 31.8833 268.97 30.9667 268.97 30V26.05H276.97V29.4C276.97 31.7667 276.637 33.8667 275.97 35.7C275.304 37.5 274.154 38.9333 272.52 40C270.887 41.0333 268.587 41.55 265.62 41.55ZM283.507 41V0.499997H291.757V17.6L299.057 0.499997H307.057L299.457 18.7L307.607 41H299.307L293.057 22.85L291.757 25.15V41H283.507ZM316.395 41V6.65H310.145V0.499997H330.845V6.65H324.695V41H316.395ZM332.603 41L340.453 0.499997H349.603L357.403 41H349.753L348.303 32.1H341.903L340.353 41H332.603ZM342.653 27.05H347.503L345.053 10.7L342.653 27.05ZM363.107 41V0.499997H371.307V41H363.107ZM379.009 41V0.499997H387.259V35.4H396.759V41H379.009ZM412.347 41.55C409.847 41.55 407.764 41.1 406.097 40.2C404.43 39.2667 403.164 37.8833 402.297 36.05C401.464 34.1833 400.98 31.8167 400.847 28.95L407.947 27.75C408.014 29.4167 408.18 30.8167 408.447 31.95C408.747 33.05 409.18 33.8833 409.747 34.45C410.347 34.9833 411.08 35.25 411.947 35.25C413.014 35.25 413.73 34.9167 414.097 34.25C414.497 33.5833 414.697 32.8167 414.697 31.95C414.697 30.25 414.28 28.8333 413.447 27.7C412.647 26.5333 411.58 25.3667 410.247 24.2L406.047 20.55C404.547 19.2833 403.314 17.85 402.347 16.25C401.414 14.65 400.947 12.6833 400.947 10.35C400.947 7.01666 401.914 4.46666 403.847 2.7C405.814 0.899998 408.497 -2.6226e-06 411.897 -2.6226e-06C413.93 -2.6226e-06 415.597 0.333331 416.897 0.999999C418.197 1.66667 419.197 2.56666 419.897 3.7C420.63 4.8 421.13 6.01666 421.397 7.35C421.697 8.65 421.88 9.95 421.947 11.25L414.897 12.3C414.83 11.0667 414.714 9.98333 414.547 9.05C414.414 8.11666 414.114 7.38333 413.647 6.85C413.214 6.31666 412.547 6.05 411.647 6.05C410.68 6.05 409.964 6.41666 409.497 7.15C409.03 7.85 408.797 8.63333 408.797 9.5C408.797 10.9333 409.114 12.1167 409.747 13.05C410.414 13.95 411.314 14.9 412.447 15.9L416.547 19.5C418.247 20.9667 419.697 22.65 420.897 24.55C422.13 26.4167 422.747 28.7333 422.747 31.5C422.747 33.4 422.314 35.1167 421.447 36.65C420.58 38.1833 419.364 39.3833 417.797 40.25C416.264 41.1167 414.447 41.55 412.347 41.55Z" fill="white"/>
</g>
<defs>
<filter id="filter0_d_696_227" x="0.0500488" y="-1.90735e-06" width="426.697" height="44.55" filterUnits="userSpaceOnUse" color-interpolation-filters="sRGB">
<feFlood flood-opacity="0" result="BackgroundImageFix"/>
<feColorMatrix in="SourceAlpha" type="matrix" values="0 0 0 0 0 0 0 0 0 0 0 0 0 0 0 0 0 0 127 0" result="hardAlpha"/>
<feOffset dx="4" dy="3"/>
<feComposite in2="hardAlpha" operator="out"/>
<feColorMatrix type="matrix" values="0 0 0 0 0.501961 0 0 0 0 0 0 0 0 0 0.12549 0 0 0 1 0"/>
<feBlend mode="normal" in2="BackgroundImageFix" result="effect1_dropShadow_696_227"/>
<feBlend mode="normal" in="SourceGraphic" in2="effect1_dropShadow_696_227" result="shape"/>
</filter>
</defs>
</svg>
